<svg id="visual" viewBox="0 0 2200 420" width="2200" height="420" xmlns="http://www.w3.org/2000/svg" xmlns:xlink="http://www.w3.org/1999/xlink" version="1.1"><path d="M0 103L52.3 101.7C104.7 100.3 209.3 97.7 314.2 114.7C419 131.7 524 168.3 628.8 178C733.7 187.7 838.3 170.3 943 157C1047.7 143.7 1152.3 134.3 1257 121C1361.7 107.7 1466.3 90.3 1571.2 97.3C1676 104.3 1781 135.7 1885.8 154.3C1990.7 173 2095.3 179 2147.7 182L2200 185L2200 421L2147.7 421C2095.3 421 1990.7 421 1885.8 421C1781 421 1676 421 1571.2 421C1466.3 421 1361.7 421 1257 421C1152.3 421 1047.7 421 943 421C838.3 421 733.7 421 628.8 421C524 421 419 421 314.2 421C209.3 421 104.7 421 52.3 421L0 421Z" fill="#facac6"></path><path d="M0 167L52.3 173.7C104.7 180.3 209.3 193.7 314.2 206C419 218.3 524 229.7 628.8 220.2C733.7 210.7 838.3 180.3 943 171.8C1047.7 163.3 1152.3 176.7 1257 173.5C1361.7 170.3 1466.3 150.7 1571.2 146.3C1676 142 1781 153 1885.8 159.5C1990.7 166 2095.3 168 2147.7 169L2200 170L2200 421L2147.7 421C2095.3 421 1990.7 421 1885.8 421C1781 421 1676 421 1571.2 421C1466.3 421 1361.7 421 1257 421C1152.3 421 1047.7 421 943 421C838.3 421 733.7 421 628.8 421C524 421 419 421 314.2 421C209.3 421 104.7 421 52.3 421L0 421Z" fill="#fcd7d4"></path><path d="M0 276L52.3 263.3C104.7 250.7 209.3 225.3 314.2 228C419 230.7 524 261.3 628.8 274.3C733.7 287.3 838.3 282.7 943 274.8C1047.7 267 1152.3 256 1257 256.2C1361.7 256.3 1466.3 267.7 1571.2 272.5C1676 277.3 1781 275.7 1885.8 277.8C1990.7 280 2095.3 286 2147.7 289L2200 292L2200 421L2147.7 421C2095.3 421 1990.7 421 1885.8 421C1781 421 1676 421 1571.2 421C1466.3 421 1361.7 421 1257 421C1152.3 421 1047.7 421 943 421C838.3 421 733.7 421 628.8 421C524 421 419 421 314.2 421C209.3 421 104.7 421 52.3 421L0 421Z" fill="#fde4e2"></path><path d="M0 309L52.3 303.7C104.7 298.3 209.3 287.7 314.2 289.7C419 291.7 524 306.3 628.8 304C733.7 301.7 838.3 282.3 943 275.8C1047.7 269.3 1152.3 275.7 1257 279.5C1361.7 283.3 1466.3 284.7 1571.2 287C1676 289.3 1781 292.7 1885.8 300.8C1990.7 309 2095.3 322 2147.7 328.5L2200 335L2200 421L2147.7 421C2095.3 421 1990.7 421 1885.8 421C1781 421 1676 421 1571.2 421C1466.3 421 1361.7 421 1257 421C1152.3 421 1047.7 421 943 421C838.3 421 733.7 421 628.8 421C524 421 419 421 314.2 421C209.3 421 104.7 421 52.3 421L0 421Z" fill="#fef1f0"></path><path d="M0 317L52.3 327.7C104.7 338.3 209.3 359.7 314.2 360.7C419 361.7 524 342.3 628.8 338.2C733.7 334 838.3 345 943 353.2C1047.7 361.3 1152.3 366.7 1257 360.5C1361.7 354.3 1466.3 336.7 1571.2 338.3C1676 340 1781 361 1885.8 360.3C1990.7 359.7 2095.3 337.3 2147.7 326.2L2200 315L2200 421L2147.7 421C2095.3 421 1990.7 421 1885.8 421C1781 421 1676 421 1571.2 421C1466.3 421 1361.7 421 1257 421C1152.3 421 1047.7 421 943 421C838.3 421 733.7 421 628.8 421C524 421 419 421 314.2 421C209.3 421 104.7 421 52.3 421L0 421Z" fill="#ffffff"></path></svg>